<?xml version="1.0" encoding="iso-8859-1"?>
<!-- Generator: Adobe Illustrator 19.0.0, SVG Export Plug-In . SVG Version: 6.00 Build 0)  -->
<svg fill='white' version="1.1" id="Layer_1" xmlns="http://www.w3.org/2000/svg" xmlns:xlink="http://www.w3.org/1999/xlink" x="0px" y="0px"
	 viewBox="0 0 489.903 489.903" style="enable-background:new 0 0 489.903 489.903;" xml:space="preserve">
<g>
	<g>
		<g>
			<path d="M482.248,130.129H7.655c-4.227,0-7.654,3.428-7.654,7.655v244.942c0,0.003-0.001,0.007-0.001,0.01
				c0,0.003,0.001,0.007,0.001,0.01v45.918c0,4.228,3.427,7.655,7.654,7.655h474.593c4.227,0,7.655-3.427,7.655-7.655v-290.88
				C489.903,133.557,486.475,130.129,482.248,130.129z M474.593,375.08h-7.654c-4.228,0-7.655,3.428-7.655,7.655
				c0,4.228,3.427,7.655,7.655,7.655h7.654v30.619H15.31V390.39h7.654c4.227,0,7.655-3.427,7.655-7.655
				c0-4.227-3.428-7.655-7.655-7.655H15.31V145.439h459.283V375.08z"/>
			<path d="M28.763,252.377l214.332,53.583c0.609,0.152,1.233,0.228,1.856,0.228c0.624,0,1.247-0.076,1.856-0.229l214.332-53.583
				c4.101-1.026,6.595-5.182,5.57-9.283c-1.026-4.102-5.184-6.592-9.283-5.57L244.95,290.642L32.476,237.524
				c-4.099-1.025-8.257,1.468-9.283,5.57C22.168,247.195,24.662,251.351,28.763,252.377z"/>
			<path d="M229.642,267.915h30.619c4.227,0,7.655-3.427,7.655-7.655c0-4.228-3.427-7.655-7.655-7.655h-30.619
				c-4.228,0-7.655,3.427-7.655,7.655C221.987,264.487,225.414,267.915,229.642,267.915z"/>
			<path d="M130.131,122.476c4.227,0,7.655-3.427,7.655-7.655V84.202h15.309v7.654c0,4.227,3.427,7.655,7.655,7.655h168.404
				c4.228,0,7.655-3.427,7.655-7.655v-7.654h15.309v30.619c0,4.228,3.427,7.655,7.655,7.655c4.228,0,7.655-3.427,7.655-7.655V76.547
				c0-4.228-3.427-7.655-7.655-7.655h-22.964v-7.654c0-4.228-3.427-7.655-7.655-7.655H160.749c-4.228,0-7.655,3.427-7.655,7.655
				v7.654H130.13c-4.228,0-7.655,3.427-7.655,7.655v38.274C122.476,119.049,125.903,122.476,130.131,122.476z M168.404,68.892
				h153.094v15.309H168.404V68.892z"/>
			<path d="M428.664,375.081H61.238c-4.227,0-7.655,3.427-7.655,7.654c0,4.228,3.428,7.655,7.655,7.655h367.426
				c4.228,0,7.655-3.427,7.655-7.655C436.319,378.508,432.892,375.081,428.664,375.081z"/>
		</g>
	</g>
</g>
<g>
</g>
<g>
</g>
<g>
</g>
<g>
</g>
<g>
</g>
<g>
</g>
<g>
</g>
<g>
</g>
<g>
</g>
<g>
</g>
<g>
</g>
<g>
</g>
<g>
</g>
<g>
</g>
<g>
</g>
</svg>
